<svg width="446" height="446" viewBox="0 0 446 446" fill="none" xmlns="http://www.w3.org/2000/svg">
<g clip-path="url(#clip0_4_448)">
<rect width="446" height="446" rx="120" fill="#0A0A0A"/>
<rect x="-16" y="-22" width="476" height="476" fill="#212121"/>
<g filter="url(#filter0_f_4_448)">
<path d="M-4.53069 202.088L32.6407 101.46L72.806 -9.31397L57.9823 248.404L22.5509 308.919L-4.53069 202.088Z" fill="#ED24AA" fill-opacity="0.44"/>
</g>
<g filter="url(#filter1_f_4_448)">
<path d="M60.1951 395.159C88.2025 414.172 298.223 406.448 263.039 406.448C227.855 406.448 143.414 387.689 112.661 378.854C81.9082 370.018 53.5599 340.241 42.1929 319.276C30.8258 298.31 20 231 20 231L23.789 319.276C23.789 319.276 32.1877 376.147 60.1951 395.159Z" fill="#FF9CE6" fill-opacity="0.29"/>
</g>
<g filter="url(#filter2_f_4_448)">
<path d="M29.0099 107.657C19.4227 160.68 29.2238 554.544 28.2852 488.529C27.3466 422.515 35.2903 263.612 39.2725 205.691C43.2547 147.77 58.6839 93.8393 69.7766 71.9892C80.8692 50.1391 117.167 28.1499 117.167 28.1499L69.2856 37.4585C69.2856 37.4585 38.5971 54.6337 29.0099 107.657Z" fill="#2CCEFA" fill-opacity="0.44"/>
</g>
<g filter="url(#filter3_f_4_448)">
<path d="M421.745 352.373C432.771 298.442 422.291 -101.708 423.245 -34.6355C424.198 32.4366 414.859 193.943 410.215 252.819C405.572 311.695 387.882 366.583 375.194 388.848C362.506 411.113 321.076 433.663 321.076 433.663L375.693 423.932C375.693 423.932 410.719 406.305 421.745 352.373Z" fill="#FFFF41" fill-opacity="0.4"/>
</g>
<g filter="url(#filter4_f_4_448)">
<path d="M295.084 378.757L251 495L344.807 448.503L427.849 429.297L434 181.649L383.252 121L394.529 329.227L295.084 378.757Z" fill="#FB4007" fill-opacity="0.92"/>
</g>
<g filter="url(#filter5_f_4_448)">
<path d="M92.1896 50.4758L331.807 52.3627L374.398 83.9481L429.647 240.058L447.536 139.376L421.955 14.2568C410.107 6.82793 364.756 -8.06867 278.13 -8.22451L58.9188 -20.4112L0.216953 100.87L92.1896 50.4758Z" fill="#FF2BD1"/>
</g>
<g filter="url(#filter6_f_4_448)">
<path d="M315.815 377.05L103.121 347.177L66.2604 308.769L21.9283 137L3 241.555L21.9283 377.05C32.2226 386.297 72.0385 407.35 148.947 417.592L343.211 456L399 334.375L315.815 377.05Z" fill="#AF37DE"/>
</g>
<g filter="url(#filter7_f_4_448)">
<path d="M383.949 41.518L148 32L322.92 55.2662C347.131 61.6115 397.702 79.1669 406.297 98.6259C414.893 118.085 418.761 160.317 419.62 179C419.907 166.309 420.308 132.468 419.62 98.6259C418.933 64.7842 395.553 46.4532 383.949 41.518Z" fill="#FFF5F5" fill-opacity="0.55"/>
</g>
<g filter="url(#filter8_f_4_448)">
<path d="M103.877 90.1833L45.7576 130.338L66.1414 63.7785L72.8953 6.92179L200.015 -20.4412L233.111 7.49853L125.608 19.601L103.877 90.1833Z" fill="#20B5FF"/>
</g>
<mask id="mask0_4_448" style="mask-type:alpha" maskUnits="userSpaceOnUse" x="57" y="176" width="86" height="86">
<circle cx="100.3" cy="218.5" r="42.5" fill="white"/>
</mask>
<g mask="url(#mask0_4_448)">
<circle cx="100.3" cy="218.5" r="42.5" fill="white"/>
<g filter="url(#filter9_f_4_448)">
<circle cx="108.799" cy="206.357" r="23.2738" fill="white" fill-opacity="0.54"/>
</g>
<g filter="url(#filter10_f_4_448)">
<path d="M80.8018 236.293C91.1081 252.177 117.61 252.177 123.5 259.397C129.389 266.617 79.3296 278.17 60.1893 250.733C41.049 223.297 57.2445 195.861 63.134 197.305C69.0234 198.749 70.4955 220.409 80.8018 236.293Z" fill="#A945F6" fill-opacity="0.42"/>
</g>
<g filter="url(#filter11_f_4_448)">
<path d="M123.53 201.122C114.941 187.053 92.856 187.053 87.9483 180.658C83.0405 174.263 124.757 164.031 140.707 188.332C156.657 212.632 143.161 236.933 138.253 235.654C133.345 234.375 132.118 215.19 123.53 201.122Z" fill="#FFB4F8" fill-opacity="0.56"/>
</g>
</g>
<mask id="mask1_4_448" style="mask-type:alpha" maskUnits="userSpaceOnUse" x="180" y="176" width="86" height="86">
<circle cx="223.3" cy="218.5" r="42.5" fill="white"/>
</mask>
<g mask="url(#mask1_4_448)">
<circle cx="223.3" cy="218.5" r="42.5" fill="white"/>
<g filter="url(#filter12_f_4_448)">
<circle cx="231.799" cy="206.357" r="23.2738" fill="white" fill-opacity="0.54"/>
</g>
<g filter="url(#filter13_f_4_448)">
<path d="M203.802 236.293C214.108 252.177 240.61 252.177 246.5 259.397C252.389 266.617 202.33 278.17 183.189 250.733C164.049 223.297 180.244 195.861 186.134 197.305C192.023 198.749 193.495 220.409 203.802 236.293Z" fill="#A945F6" fill-opacity="0.42"/>
</g>
<g filter="url(#filter14_f_4_448)">
<path d="M246.53 201.122C237.941 187.053 215.856 187.053 210.948 180.658C206.041 174.263 247.757 164.031 263.707 188.332C279.657 212.632 266.161 236.933 261.253 235.654C256.345 234.375 255.118 215.19 246.53 201.122Z" fill="#FFB4F8" fill-opacity="0.56"/>
</g>
</g>
<mask id="mask2_4_448" style="mask-type:alpha" maskUnits="userSpaceOnUse" x="303" y="176" width="86" height="86">
<circle cx="346.3" cy="218.5" r="42.5" fill="white"/>
</mask>
<g mask="url(#mask2_4_448)">
<circle cx="346.3" cy="218.5" r="42.5" fill="white"/>
<g filter="url(#filter15_f_4_448)">
<circle cx="354.799" cy="206.357" r="23.2738" fill="white" fill-opacity="0.54"/>
</g>
<g filter="url(#filter16_f_4_448)">
<path d="M326.802 236.293C337.108 252.177 363.61 252.177 369.5 259.397C375.389 266.617 325.33 278.17 306.189 250.733C287.049 223.297 303.244 195.861 309.134 197.305C315.023 198.749 316.495 220.409 326.802 236.293Z" fill="#A945F6" fill-opacity="0.42"/>
</g>
<g filter="url(#filter17_f_4_448)">
<path d="M369.53 201.122C360.941 187.053 338.856 187.053 333.948 180.658C329.041 174.263 370.757 164.031 386.707 188.332C402.657 212.632 389.161 236.933 384.253 235.654C379.345 234.375 378.118 215.19 369.53 201.122Z" fill="#FFB4F8" fill-opacity="0.56"/>
</g>
</g>
</g>
<defs>
<filter id="filter0_f_4_448" x="-79.5308" y="-84.314" width="227.337" height="468.233" filterUnits="userSpaceOnUse" color-interpolation-filters="sRGB">
<feFlood flood-opacity="0" result="BackgroundImageFix"/>
<feBlend mode="normal" in="SourceGraphic" in2="BackgroundImageFix" result="shape"/>
<feGaussianBlur stdDeviation="37.5" result="effect1_foregroundBlur_4_448"/>
</filter>
<filter id="filter1_f_4_448" x="2.2" y="213.2" width="282.6" height="212.6" filterUnits="userSpaceOnUse" color-interpolation-filters="sRGB">
<feFlood flood-opacity="0" result="BackgroundImageFix"/>
<feBlend mode="normal" in="SourceGraphic" in2="BackgroundImageFix" result="shape"/>
<feGaussianBlur stdDeviation="8.9" result="effect1_foregroundBlur_4_448"/>
</filter>
<filter id="filter2_f_4_448" x="1.86953" y="5.2499" width="138.197" height="513.614" filterUnits="userSpaceOnUse" color-interpolation-filters="sRGB">
<feFlood flood-opacity="0" result="BackgroundImageFix"/>
<feBlend mode="normal" in="SourceGraphic" in2="BackgroundImageFix" result="shape"/>
<feGaussianBlur stdDeviation="11.45" result="effect1_foregroundBlur_4_448"/>
</filter>
<filter id="filter3_f_4_448" x="298.176" y="-65.0901" width="151.555" height="521.653" filterUnits="userSpaceOnUse" color-interpolation-filters="sRGB">
<feFlood flood-opacity="0" result="BackgroundImageFix"/>
<feBlend mode="normal" in="SourceGraphic" in2="BackgroundImageFix" result="shape"/>
<feGaussianBlur stdDeviation="11.45" result="effect1_foregroundBlur_4_448"/>
</filter>
<filter id="filter4_f_4_448" x="175" y="45" width="335" height="526" filterUnits="userSpaceOnUse" color-interpolation-filters="sRGB">
<feFlood flood-opacity="0" result="BackgroundImageFix"/>
<feBlend mode="normal" in="SourceGraphic" in2="BackgroundImageFix" result="shape"/>
<feGaussianBlur stdDeviation="38" result="effect1_foregroundBlur_4_448"/>
</filter>
<filter id="filter5_f_4_448" x="-74.983" y="-95.6113" width="597.719" height="410.869" filterUnits="userSpaceOnUse" color-interpolation-filters="sRGB">
<feFlood flood-opacity="0" result="BackgroundImageFix"/>
<feBlend mode="normal" in="SourceGraphic" in2="BackgroundImageFix" result="shape"/>
<feGaussianBlur stdDeviation="37.6" result="effect1_foregroundBlur_4_448"/>
</filter>
<filter id="filter6_f_4_448" x="-71" y="63" width="544" height="467" filterUnits="userSpaceOnUse" color-interpolation-filters="sRGB">
<feFlood flood-opacity="0" result="BackgroundImageFix"/>
<feBlend mode="normal" in="SourceGraphic" in2="BackgroundImageFix" result="shape"/>
<feGaussianBlur stdDeviation="37" result="effect1_foregroundBlur_4_448"/>
</filter>
<filter id="filter7_f_4_448" x="125.4" y="9.4" width="317.2" height="192.2" filterUnits="userSpaceOnUse" color-interpolation-filters="sRGB">
<feFlood flood-opacity="0" result="BackgroundImageFix"/>
<feBlend mode="normal" in="SourceGraphic" in2="BackgroundImageFix" result="shape"/>
<feGaussianBlur stdDeviation="11.3" result="effect1_foregroundBlur_4_448"/>
</filter>
<filter id="filter8_f_4_448" x="-32.8424" y="-99.0412" width="344.553" height="307.979" filterUnits="userSpaceOnUse" color-interpolation-filters="sRGB">
<feFlood flood-opacity="0" result="BackgroundImageFix"/>
<feBlend mode="normal" in="SourceGraphic" in2="BackgroundImageFix" result="shape"/>
<feGaussianBlur stdDeviation="39.3" result="effect1_foregroundBlur_4_448"/>
</filter>
<filter id="filter9_f_4_448" x="70.2256" y="167.783" width="77.1476" height="77.1476" filterUnits="userSpaceOnUse" color-interpolation-filters="sRGB">
<feFlood flood-opacity="0" result="BackgroundImageFix"/>
<feBlend mode="normal" in="SourceGraphic" in2="BackgroundImageFix" result="shape"/>
<feGaussianBlur stdDeviation="7.65" result="effect1_foregroundBlur_4_448"/>
</filter>
<filter id="filter10_f_4_448" x="32.8211" y="178.95" width="109.457" height="107.433" filterUnits="userSpaceOnUse" color-interpolation-filters="sRGB">
<feFlood flood-opacity="0" result="BackgroundImageFix"/>
<feBlend mode="normal" in="SourceGraphic" in2="BackgroundImageFix" result="shape"/>
<feGaussianBlur stdDeviation="9.15" result="effect1_foregroundBlur_4_448"/>
</filter>
<filter id="filter11_f_4_448" x="79.5496" y="164.964" width="76.7141" height="78.738" filterUnits="userSpaceOnUse" color-interpolation-filters="sRGB">
<feFlood flood-opacity="0" result="BackgroundImageFix"/>
<feBlend mode="normal" in="SourceGraphic" in2="BackgroundImageFix" result="shape"/>
<feGaussianBlur stdDeviation="4" result="effect1_foregroundBlur_4_448"/>
</filter>
<filter id="filter12_f_4_448" x="193.226" y="167.783" width="77.1476" height="77.1476" filterUnits="userSpaceOnUse" color-interpolation-filters="sRGB">
<feFlood flood-opacity="0" result="BackgroundImageFix"/>
<feBlend mode="normal" in="SourceGraphic" in2="BackgroundImageFix" result="shape"/>
<feGaussianBlur stdDeviation="7.65" result="effect1_foregroundBlur_4_448"/>
</filter>
<filter id="filter13_f_4_448" x="155.821" y="178.95" width="109.457" height="107.433" filterUnits="userSpaceOnUse" color-interpolation-filters="sRGB">
<feFlood flood-opacity="0" result="BackgroundImageFix"/>
<feBlend mode="normal" in="SourceGraphic" in2="BackgroundImageFix" result="shape"/>
<feGaussianBlur stdDeviation="9.15" result="effect1_foregroundBlur_4_448"/>
</filter>
<filter id="filter14_f_4_448" x="202.55" y="164.964" width="76.7141" height="78.738" filterUnits="userSpaceOnUse" color-interpolation-filters="sRGB">
<feFlood flood-opacity="0" result="BackgroundImageFix"/>
<feBlend mode="normal" in="SourceGraphic" in2="BackgroundImageFix" result="shape"/>
<feGaussianBlur stdDeviation="4" result="effect1_foregroundBlur_4_448"/>
</filter>
<filter id="filter15_f_4_448" x="316.226" y="167.783" width="77.1476" height="77.1476" filterUnits="userSpaceOnUse" color-interpolation-filters="sRGB">
<feFlood flood-opacity="0" result="BackgroundImageFix"/>
<feBlend mode="normal" in="SourceGraphic" in2="BackgroundImageFix" result="shape"/>
<feGaussianBlur stdDeviation="7.65" result="effect1_foregroundBlur_4_448"/>
</filter>
<filter id="filter16_f_4_448" x="278.821" y="178.95" width="109.457" height="107.433" filterUnits="userSpaceOnUse" color-interpolation-filters="sRGB">
<feFlood flood-opacity="0" result="BackgroundImageFix"/>
<feBlend mode="normal" in="SourceGraphic" in2="BackgroundImageFix" result="shape"/>
<feGaussianBlur stdDeviation="9.15" result="effect1_foregroundBlur_4_448"/>
</filter>
<filter id="filter17_f_4_448" x="325.55" y="164.964" width="76.7141" height="78.738" filterUnits="userSpaceOnUse" color-interpolation-filters="sRGB">
<feFlood flood-opacity="0" result="BackgroundImageFix"/>
<feBlend mode="normal" in="SourceGraphic" in2="BackgroundImageFix" result="shape"/>
<feGaussianBlur stdDeviation="4" result="effect1_foregroundBlur_4_448"/>
</filter>
<clipPath id="clip0_4_448">
<rect width="446" height="446" rx="120" fill="white"/>
</clipPath>
</defs>
</svg>
